<svg width="56" height="56" viewBox="0 0 56 56" fill="none" xmlns="http://www.w3.org/2000/svg">
<path d="M44.5022 13.0933C49.8974 21.0748 52.5618 30.0777 51.5658 40.4421C51.5616 40.486 51.5389 40.5262 51.5031 40.5527C47.4174 43.5713 43.459 45.4032 39.5561 46.6181C39.5257 46.6274 39.4931 46.6269 39.4631 46.6166C39.433 46.6064 39.4068 46.5869 39.3883 46.561C38.4866 45.2987 37.6673 43.9678 36.9495 42.5703C36.9083 42.4879 36.946 42.3888 37.0307 42.3564C38.3319 41.8631 39.5692 41.2719 40.7593 40.5719C40.853 40.5166 40.859 40.3814 40.7724 40.3165C40.5198 40.1279 40.2696 39.9296 40.0302 39.7313C39.9854 39.6947 39.9251 39.6875 39.8743 39.7121C32.1479 43.3021 23.684 43.3021 15.8663 39.7121C15.8155 39.6893 15.7552 39.6971 15.7116 39.7331C15.4728 39.9314 15.222 40.1279 14.9718 40.3165C14.8852 40.3814 14.8923 40.5166 14.9867 40.5719C16.1768 41.2586 17.4141 41.8631 18.7134 42.3588C18.7976 42.3912 18.8376 42.4879 18.7958 42.5703C18.0936 43.9696 17.2743 45.3005 16.3559 46.5628C16.3159 46.6139 16.2502 46.6373 16.1881 46.6181C12.3037 45.4032 8.34527 43.5713 4.25957 40.5527C4.22557 40.5262 4.20107 40.4842 4.19747 40.4403C3.36507 31.4752 5.06157 22.3978 11.2545 13.0915C11.2695 13.0668 11.2922 13.0476 11.3184 13.0362C14.3657 11.629 17.6302 10.5938 21.0423 10.0026C21.1044 9.99296 21.1665 10.0218 21.1987 10.0771C21.6203 10.8281 22.1022 11.7913 22.4283 12.5784C26.0248 12.0256 29.6776 12.0256 33.3494 12.5784C33.6754 11.8081 34.1406 10.8281 34.5604 10.0771C34.5753 10.0497 34.5985 10.0277 34.6266 10.0143C34.6547 10.0009 34.6863 9.99676 34.7168 10.0026C38.1307 10.5956 41.3953 11.6308 44.4401 13.0362C44.4669 13.0476 44.489 13.0668 44.5022 13.0933ZM24.2567 30.139C24.2943 27.4887 22.3739 25.2956 19.9633 25.2956C17.5723 25.2956 15.6704 27.4695 15.6704 30.139C15.6704 32.8079 17.6099 34.9817 19.9633 34.9817C22.3548 34.9817 24.2567 32.8079 24.2567 30.139ZM40.1299 30.139C40.1675 27.4887 38.2471 25.2956 35.8371 25.2956C33.4455 25.2956 31.5436 27.4695 31.5436 30.139C31.5436 32.8079 33.4831 34.9817 35.8371 34.9817C38.2471 34.9817 40.1299 32.8079 40.1299 30.139Z" fill="white"/>
</svg>
