<svg width="40" height="40" viewBox="0 0 40 40" fill="none" xmlns="http://www.w3.org/2000/svg">
<path fill-rule="evenodd" clip-rule="evenodd" d="M20 8C13.3725 8 8 13.3727 8 19.9998C8 26.6273 13.3725 32 20 32C26.6271 32 32 26.6274 32 19.9998C32 13.3727 26.6271 8 20 8ZM20.1402 27.0184C16.2723 27.0184 13.1394 23.8776 13.1394 19.9999C13.1394 16.1223 16.2723 12.9815 20.1402 12.9815C22.0305 12.9815 23.6097 13.6789 24.822 14.8107L22.8483 16.7891V16.7846C22.1134 16.0827 21.1815 15.7231 20.1402 15.7231C17.83 15.7231 15.953 17.6794 15.953 19.9957C15.953 22.3114 17.8301 24.2725 20.1402 24.2725C22.2361 24.2725 23.6623 23.0706 23.9558 21.4213H20.1402V18.684H26.725C26.8126 19.1532 26.8605 19.6446 26.8605 20.1578C26.8605 24.1672 24.1831 27.0184 20.1402 27.0184Z" fill="white" fill-opacity="0.5"/>
</svg>
