<svg width="40" height="40" viewBox="0 0 40 40" fill="none" xmlns="http://www.w3.org/2000/svg">
    <path d="M20 17.024C19.4114 17.024 18.836 17.1985 18.3466 17.5255C17.8572 17.8526 17.4758 18.3173 17.2505 18.8611C17.0253 19.4049 16.9664 20.0033 17.0812 20.5806C17.196 21.1579 17.4794 21.6881 17.8957 22.1044C18.3119 22.5206 18.8421 22.804 19.4194 22.9188C19.9967 23.0336 20.5951 22.9747 21.1389 22.7495C21.6827 22.5242 22.1474 22.1428 22.4745 21.6534C22.8015 21.164 22.976 20.5886 22.976 20C22.976 19.6092 22.899 19.2222 22.7495 18.8611C22.5999 18.5001 22.3807 18.172 22.1044 17.8957C21.828 17.6193 21.4999 17.4001 21.1389 17.2505C20.7778 17.101 20.3908 17.024 20 17.024ZM31.916 14.084C31.9097 13.1573 31.739 12.2391 31.412 11.372C31.1711 10.7375 30.7985 10.1613 30.3186 9.68142C29.8387 9.20153 29.2625 8.82886 28.628 8.588C27.7609 8.26096 26.8427 8.09031 25.916 8.084C24.368 8 23.912 8 20 8C16.088 8 15.632 8 14.084 8.084C13.1573 8.09031 12.2391 8.26096 11.372 8.588C10.7375 8.82886 10.1613 9.20153 9.68142 9.68142C9.20153 10.1613 8.82886 10.7375 8.588 11.372C8.26096 12.2391 8.09031 13.1573 8.084 14.084C8 15.632 8 16.088 8 20C8 23.912 8 24.368 8.084 25.916C8.09692 26.846 8.26733 27.767 8.588 28.64C8.82779 29.2716 9.20015 29.8444 9.68 30.32C10.1578 30.8028 10.7353 31.1754 11.372 31.412C12.2391 31.739 13.1573 31.9097 14.084 31.916C15.632 32 16.088 32 20 32C23.912 32 24.368 32 25.916 31.916C26.8427 31.9097 27.7609 31.739 28.628 31.412C29.2647 31.1754 29.8422 30.8028 30.32 30.32C30.7998 29.8444 31.1722 29.2716 31.412 28.64C31.7387 27.7687 31.9093 26.8466 31.916 25.916C32 24.368 32 23.912 32 20C32 16.088 32 15.632 31.916 14.084ZM28.868 23.684C28.8295 24.4245 28.6715 25.1539 28.4 25.844C28.167 26.4196 27.8207 26.9425 27.3816 27.3816C26.9425 27.8207 26.4196 28.167 25.844 28.4C25.1474 28.6563 24.4139 28.7981 23.672 28.82C22.724 28.82 22.472 28.82 20 28.82C17.528 28.82 17.276 28.82 16.328 28.82C15.5861 28.7981 14.8526 28.6563 14.156 28.4C13.5609 28.1789 13.0235 27.8261 12.584 27.368C12.1492 26.9375 11.8134 26.4174 11.6 25.844C11.3427 25.1481 11.2047 24.4138 11.192 23.672C11.192 22.724 11.192 22.472 11.192 20C11.192 17.528 11.192 17.276 11.192 16.328C11.2047 15.5862 11.3427 14.8519 11.6 14.156C11.8211 13.5609 12.1739 13.0235 12.632 12.584C13.0644 12.1515 13.5839 11.8161 14.156 11.6C14.8526 11.3437 15.5861 11.2019 16.328 11.18H20C20 11.18 22.724 11.18 23.672 11.18C24.4139 11.2019 25.1474 11.3437 25.844 11.6C26.4391 11.8211 26.9765 12.1739 27.416 12.632C27.8508 13.0625 28.1866 13.5826 28.4 14.156C28.6563 14.8526 28.7981 15.5861 28.82 16.328V20C28.82 20 28.904 22.724 28.868 23.672V23.684ZM26.948 14.756C26.8051 14.3684 26.5799 14.0164 26.2877 13.7243C25.9956 13.4321 25.6436 13.2069 25.256 13.064C24.7238 12.8795 24.1632 12.7901 23.6 12.8C22.664 12.8 22.4 12.8 20 12.8C17.6 12.8 17.336 12.8 16.4 12.8C15.8339 12.8055 15.2733 12.9112 14.744 13.112C14.3623 13.2484 14.014 13.4645 13.7223 13.7458C13.4306 14.0272 13.2021 14.3675 13.052 14.744C12.8777 15.2784 12.7926 15.8379 12.8 16.4V20C12.8 20 12.8 22.664 12.8 23.6C12.8119 24.1654 12.9173 24.725 13.112 25.256C13.2549 25.6436 13.4801 25.9956 13.7723 26.2877C14.0644 26.5799 14.4164 26.8051 14.804 26.948C15.316 27.1363 15.8548 27.2416 16.4 27.26H20C20 27.26 22.664 27.26 23.6 27.26C24.1661 27.2545 24.7267 27.1488 25.256 26.948C25.6436 26.8051 25.9956 26.5799 26.2877 26.2877C26.5799 25.9956 26.8051 25.6436 26.948 25.256C27.1488 24.7267 27.2545 24.1661 27.26 23.6C27.26 22.664 27.26 22.4 27.26 20C27.26 17.6 27.26 17.336 27.26 16.4C27.2603 15.8334 27.1545 15.2717 26.948 14.744V14.756ZM20 24.584C19.3986 24.584 18.8031 24.4653 18.2476 24.2348C17.6921 24.0043 17.1876 23.6665 16.7629 23.2407C16.3382 22.8148 16.0016 22.3094 15.7726 21.7533C15.5435 21.1972 15.4264 20.6014 15.428 20C15.428 19.0929 15.6972 18.2061 16.2014 17.452C16.7056 16.6979 17.4222 16.1104 18.2606 15.7638C19.0989 15.4172 20.0212 15.3271 20.9107 15.505C21.8003 15.6828 22.617 16.1206 23.2576 16.7629C23.8982 17.4052 24.3339 18.2231 24.5094 19.1131C24.6849 20.0031 24.5924 20.9251 24.2436 21.7626C23.8948 22.6 23.3054 23.315 22.55 23.8173C21.7946 24.3195 20.9071 24.5864 20 24.584ZM24.8 16.316C24.5347 16.2879 24.2892 16.1627 24.1108 15.9644C23.9324 15.7661 23.8337 15.5088 23.8337 15.242C23.8337 14.9752 23.9324 14.7179 24.1108 14.5196C24.2892 14.3213 24.5347 14.1961 24.8 14.168C25.0653 14.1961 25.3108 14.3213 25.4892 14.5196C25.6676 14.7179 25.7663 14.9752 25.7663 15.242C25.7663 15.5088 25.6676 15.7661 25.4892 15.9644C25.3108 16.1627 25.0653 16.2879 24.8 16.316Z" 
    fill="white" fill-opacity="1"/>
</svg>
