<svg width="48" height="48" viewBox="0 0 48 48" fill="none" xmlns="http://www.w3.org/2000/svg">
<g clip-path="url(#clip0_728_1404)">
<circle cx="24" cy="24" r="24" fill="#0B0B0B"/>
<path d="M23.9589 0C11.3569 0 1.02292 9.72 0.0449219 22.074L12.9089 27.39C13.9989 26.648 15.3149 26.21 16.7329 26.21C16.8589 26.21 16.9829 26.218 17.1089 26.222L22.8309 17.938V17.82C22.8309 12.83 26.8869 8.772 31.8789 8.772C36.8669 8.772 40.9269 12.834 40.9269 17.826C40.9269 22.818 36.8669 26.876 31.8789 26.876H31.6689L23.5169 32.698C23.5169 32.802 23.5249 32.908 23.5249 33.016C23.5249 36.766 20.4949 39.808 16.7449 39.808C13.4749 39.808 10.7129 37.462 10.0829 34.354L0.872922 30.54C3.72492 40.614 12.9729 48 23.9589 48C37.2129 48 47.9569 37.254 47.9569 24C47.9569 10.746 37.2109 0 23.9589 0ZM15.0809 36.42L12.1349 35.2C12.6589 36.286 13.5629 37.198 14.7629 37.7C17.3569 38.778 20.3489 37.548 21.4269 34.95C21.9529 33.69 21.9549 32.312 21.4369 31.052C20.9189 29.792 19.9369 28.81 18.6829 28.286C17.4349 27.766 16.1029 27.788 14.9269 28.226L17.9729 29.486C19.8849 30.286 20.7909 32.486 19.9909 34.396C19.1969 36.31 16.9949 37.216 15.0809 36.42ZM37.9109 17.814C37.9109 14.49 35.2049 11.784 31.8809 11.784C28.5509 11.784 25.8509 14.49 25.8509 17.814C25.8509 21.144 28.5509 23.844 31.8809 23.844C35.2069 23.844 37.9109 21.144 37.9109 17.814ZM27.3649 17.804C27.3649 15.3 29.3909 13.272 31.8949 13.272C34.3929 13.272 36.4269 15.3 36.4269 17.804C36.4269 20.306 34.3929 22.334 31.8949 22.334C29.3889 22.334 27.3649 20.306 27.3649 17.804Z" fill="white"/>
</g>
<defs>
<clipPath id="clip0_728_1404">
<rect width="48" height="48" fill="white"/>
</clipPath>
</defs>
</svg>
