<svg width="40" height="40" viewBox="0 0 40 40" fill="none" xmlns="http://www.w3.org/2000/svg">
<path d="M25.2714 14.8883C25.2765 14.8883 25.2834 14.8883 25.2903 14.8883C25.4708 14.8883 25.6382 14.9444 25.7755 15.0411L25.7729 15.0394C25.873 15.1266 25.9403 15.2491 25.9567 15.3873V15.3898C25.974 15.4952 25.9835 15.616 25.9835 15.7394C25.9835 15.7956 25.9818 15.8508 25.9775 15.906V15.8983C25.7832 17.9432 24.9407 22.9024 24.5126 25.1916C24.3313 26.161 23.9748 26.4856 23.6295 26.5167C22.8794 26.5866 22.3097 26.0212 21.5828 25.5447C20.4451 24.798 19.802 24.3336 18.698 23.6059C17.4213 22.766 18.2491 22.3025 18.9759 21.548C19.1667 21.3495 22.4737 18.3412 22.5384 18.0684C22.5419 18.052 22.5436 18.0339 22.5436 18.0149C22.5436 17.9475 22.5186 17.8863 22.478 17.8396C22.4331 17.8103 22.377 17.7939 22.3183 17.7939C22.2795 17.7939 22.2423 17.8017 22.2078 17.8146L22.2095 17.8137C22.0956 17.8396 20.2782 19.0407 16.7575 21.4168C16.3733 21.7198 15.8882 21.9114 15.3599 21.9339H15.3548C14.6063 21.8432 13.927 21.6766 13.2822 21.4392L13.3461 21.46C12.5364 21.1958 11.8933 21.0568 11.9485 20.6097C11.9779 20.3772 12.2984 20.1392 12.9101 19.8958C16.6783 18.254 19.1912 17.1718 20.4486 16.6493C21.8358 15.913 23.4439 15.307 25.135 14.9142L25.2705 14.8875L25.2714 14.8883ZM19.9263 7.10645C12.7599 7.12371 6.95654 12.9375 6.95654 20.1064C6.95654 27.2858 12.7763 33.1064 19.9565 33.1064C27.1368 33.1064 32.9565 27.2867 32.9565 20.1064C32.9565 12.9375 27.1532 7.12371 19.9885 7.10645H19.9868C19.9666 7.10645 19.9465 7.10645 19.9263 7.10645Z" fill="white" fill-opacity="0.5"/>
</svg>
