<svg width="40" height="40" viewBox="0 0 40 40" fill="none" xmlns="http://www.w3.org/2000/svg">
    <path d="M30.5899 12.5615C29.192 12.2625 27.9261 11.5247 26.9768 10.4558C26.0275 9.38693 25.4444 8.04276 25.3126 6.61927V6.00195H20.4902V25.1402C20.4873 25.9875 20.2189 26.8126 19.7228 27.4994C19.2267 28.1863 18.5279 28.7005 17.7245 28.9697C16.9212 29.239 16.0536 29.2497 15.2439 29.0005C14.4341 28.7512 13.7227 28.2545 13.2098 27.5801C12.6889 26.8945 12.3999 26.0607 12.3848 25.1998C12.3697 24.3388 12.6292 23.4954 13.1258 22.7919C13.6223 22.0884 14.33 21.5613 15.1462 21.2871C15.9625 21.0129 16.8449 21.0059 17.6654 21.267V16.3676C15.8356 16.1146 13.9726 16.44 12.3368 17.298C10.701 18.1561 9.37435 19.5039 8.54235 21.1531C7.71036 22.8023 7.41465 24.6703 7.69659 26.4958C7.97853 28.3214 8.82402 30.0131 10.1148 31.3344C11.3457 32.5939 12.9241 33.458 14.6483 33.8165C16.3726 34.1749 18.1645 34.0114 19.7954 33.3469C21.4264 32.6823 22.8222 31.5468 23.8049 30.0854C24.7876 28.6239 25.3125 26.9028 25.3126 25.1416V15.3625C27.2615 16.7558 29.5982 17.5029 31.9939 17.4986V12.7071C31.5221 12.7077 31.0516 12.6589 30.5899 12.5615Z" 
    fill="white" fill-opacity="1"/>
</svg>
