<svg width="35" height="36" viewBox="0 0 35 36" fill="none" xmlns="http://www.w3.org/2000/svg">
<g opacity="0.8" clip-path="url(#clip0_16_16)">
<mask id="mask0_16_16" style="mask-type:luminance" maskUnits="userSpaceOnUse" x="0" y="0" width="35" height="36">
<path d="M17.5 35.8517C27.165 35.8517 35 27.9571 35 18.2187C35 8.48017 27.165 0.585571 17.5 0.585571C7.83502 0.585571 0 8.48017 0 18.2187C0 27.9571 7.83502 35.8517 17.5 35.8517Z" fill="white"/>
</mask>
<g mask="url(#mask0_16_16)">
<path d="M0 0.585571H35V35.8517H0V0.585571Z" fill="#0052B4"/>
<path d="M17.5 7.4873L18.0674 9.24372H19.8926L18.4092 10.3251L18.9766 12.0884L17.4932 11.0001L16.0098 12.0884L16.5771 10.3251L15.0938 9.24372H16.9258L17.5 7.4873ZM9.9668 10.6282L11.6074 11.4685L12.8994 10.1598L12.6123 11.9851L14.2461 12.8254L12.4346 13.1147L12.1475 14.94L11.3135 13.2869L9.50195 13.5831L10.8008 12.2744L9.9668 10.6282ZM6.84961 18.2187L8.59277 17.647V15.8079L9.66602 17.3026L11.416 16.7309L10.3359 18.2256L11.416 19.7203L9.66602 19.1486L8.59277 20.6432V18.7973L6.84961 18.2187ZM9.9668 25.8092L10.8008 24.1561L9.50195 22.8543L11.3135 23.1436L12.1475 21.4973L12.4346 23.3226L14.2461 23.6119L12.6055 24.4523L12.8994 26.2776L11.6006 24.9689L9.9668 25.8092ZM17.5 28.9501L16.9326 27.1936H15.1074L16.5908 26.1122L16.0234 24.3489L17.5068 25.4372L18.9902 24.3489L18.4229 26.1122L19.9063 27.1936H18.0742L17.5 28.9501ZM25.0332 25.8092L23.3926 24.9689L22.1006 26.2776L22.3877 24.4523L20.7539 23.6119L22.5654 23.3226L22.8525 21.4973L23.6865 23.1504L25.498 22.8543L24.1992 24.163L25.0332 25.8092ZM28.1504 18.2187L26.4072 18.7904V20.6295L25.334 19.1348L23.584 19.7065L24.6641 18.2118L23.584 16.7171L25.334 17.2888L26.4072 15.7941V17.6401L28.1504 18.2187ZM25.0332 10.6282L24.1992 12.2813L25.498 13.5831L23.6865 13.2938L22.8525 14.94L22.5654 13.1147L20.7539 12.8254L22.3945 11.9851L22.1006 10.1598L23.3994 11.4685L25.0332 10.6282Z" fill="#FFDA44"/>
</g>
</g>
<defs>
<clipPath id="clip0_16_16">
<rect width="35" height="35.2662" fill="white" transform="translate(0 0.585571)"/>
</clipPath>
</defs>
</svg>
