<svg width="40" height="40" viewBox="0 0 40 40" fill="none" xmlns="http://www.w3.org/2000/svg">
<g clip-path="url(#clip0_1030_1769)">
<path d="M35 31.6668V8.33349C35.0001 8.04023 34.9272 7.75215 34.7887 7.49832C34.6503 7.24449 34.4511 7.0339 34.2114 6.88782C33.9716 6.74174 33.6998 6.66535 33.4233 6.66634C33.1468 6.66734 32.8755 6.74569 32.6367 6.89349L13.7802 18.5602C13.5428 18.7069 13.3458 18.9171 13.2089 19.1697C13.072 19.4224 13 19.7087 13 20.0002C13 20.2916 13.072 20.5779 13.2089 20.8306C13.3458 21.0832 13.5428 21.2934 13.7802 21.4402L32.6367 33.1068C32.8755 33.2546 33.1468 33.333 33.4233 33.334C33.6998 33.335 33.9716 33.2586 34.2114 33.1125C34.4511 32.9664 34.6503 32.7558 34.7887 32.502C34.9272 32.2482 35.0001 31.9601 35 31.6668Z" fill="white"/>
<path d="M7.83301 33.3335C7.22067 33.3334 6.62967 33.1836 6.17208 32.9123C5.71449 32.641 5.42215 32.2672 5.35051 31.8618L5.33301 31.6668L5.33301 8.3335C5.33371 7.9087 5.57771 7.50011 6.01513 7.19122C6.45255 6.88232 7.05039 6.69644 7.68649 6.67154C8.3226 6.64665 8.94896 6.78462 9.43759 7.05727C9.92622 7.32992 10.2402 7.71667 10.3155 8.1385L10.333 8.3335L10.333 31.6668C10.333 32.1089 10.0696 32.5328 9.60078 32.8453C9.13194 33.1579 8.49605 33.3335 7.83301 33.3335Z" fill="white"/>
</g>
<defs>
<clipPath id="clip0_1030_1769">
<rect width="40" height="40" fill="white" transform="matrix(-1 0 0 -1 40 40)"/>
</clipPath>
</defs>
</svg>
