<svg width="40" height="40" viewBox="0 0 40 40" fill="none" xmlns="http://www.w3.org/2000/svg">
<g clip-path="url(#clip0_1030_1762)">
<path d="M14.9997 6.6665H11.6663C10.7823 6.6665 9.93444 7.01769 9.30932 7.64281C8.6842 8.26794 8.33301 9.11578 8.33301 9.99984V29.9998C8.33301 30.8839 8.6842 31.7317 9.30932 32.3569C9.93444 32.982 10.7823 33.3332 11.6663 33.3332H14.9997C15.8837 33.3332 16.7316 32.982 17.3567 32.3569C17.9818 31.7317 18.333 30.8839 18.333 29.9998V9.99984C18.333 9.11578 17.9818 8.26794 17.3567 7.64281C16.7316 7.01769 15.8837 6.6665 14.9997 6.6665Z" fill="white"/>
<path d="M28.3337 6.6665H25.0003C24.1163 6.6665 23.2684 7.01769 22.6433 7.64281C22.0182 8.26794 21.667 9.11578 21.667 9.99984V29.9998C21.667 30.8839 22.0182 31.7317 22.6433 32.3569C23.2684 32.982 24.1163 33.3332 25.0003 33.3332H28.3337C29.2177 33.3332 30.0656 32.982 30.6907 32.3569C31.3158 31.7317 31.667 30.8839 31.667 29.9998V9.99984C31.667 9.11578 31.3158 8.26794 30.6907 7.64281C30.0656 7.01769 29.2177 6.6665 28.3337 6.6665Z" fill="white"/>
</g>
<defs>
<clipPath id="clip0_1030_1762">
<rect width="40" height="40" fill="white"/>
</clipPath>
</defs>
</svg>
