<svg width="40" height="40" viewBox="0 0 40 40" fill="none" xmlns="http://www.w3.org/2000/svg">
<g clip-path="url(#clip0_1029_1758)">
<path d="M5 8.33318V31.6665C4.99992 31.9598 5.07279 32.2479 5.21126 32.5017C5.34973 32.7555 5.54889 32.9661 5.78863 33.1122C6.02838 33.2583 6.30022 33.3347 6.57671 33.3337C6.85319 33.3327 7.12454 33.2543 7.36334 33.1065L26.2198 21.4398C26.4572 21.2931 26.6542 21.0829 26.7911 20.8303C26.928 20.5776 27 20.2913 27 19.9998C27 19.7084 26.928 19.4221 26.7911 19.1694C26.6542 18.9168 26.4572 18.7066 26.2198 18.5598L7.36334 6.89318C7.12454 6.74538 6.85319 6.66702 6.57671 6.66603C6.30022 6.66503 6.02838 6.74143 5.78863 6.88751C5.54889 7.03358 5.34973 7.24417 5.21126 7.498C5.07279 7.75183 4.99992 8.03992 5 8.33318Z" fill="white"/>
<path d="M32.167 6.6665C32.7793 6.66656 33.3703 6.81643 33.8279 7.0877C34.2855 7.35896 34.5778 7.73275 34.6495 8.13817L34.667 8.33317V31.6665C34.6663 32.0913 34.4223 32.4999 33.9849 32.8088C33.5474 33.1177 32.9496 33.3036 32.3135 33.3285C31.6774 33.3534 31.051 33.2154 30.5624 32.9427C30.0738 32.6701 29.7598 32.2833 29.6845 31.8615L29.667 31.6665V8.33317C29.667 7.89114 29.9304 7.46722 30.3992 7.15466C30.8681 6.8421 31.504 6.6665 32.167 6.6665Z" fill="white"/>
</g>
<defs>
<clipPath id="clip0_1029_1758">
<rect width="40" height="40" fill="white"/>
</clipPath>
</defs>
</svg>
