<svg width="32" height="32" viewBox="0 0 32 32" fill="none" xmlns="http://www.w3.org/2000/svg">
<g clip-path="url(#clip0_1107_2617)">
<path d="M16.008 17.3587C12.5455 17.3587 9.72852 14.5417 9.72852 11.0792C9.72852 7.61674 12.5455 4.7998 16.008 4.7998C19.4705 4.7998 22.2874 7.61674 22.2874 11.0792C22.2874 14.5417 19.4705 17.3587 16.008 17.3587Z" fill="white"/>
<path d="M27.3225 4.68625C24.3 1.66438 20.2825 0 16.0088 0C11.735 0 7.71691 1.66438 4.69504 4.68625C1.67316 7.70813 0.00878906 11.7262 0.00878906 16C0.00878906 20.2738 1.67316 24.2919 4.69504 27.3137C7.71691 30.3356 11.735 32 16.0088 32C20.2825 32 24.3 30.3356 27.3226 27.3137C30.3444 24.2919 32.0088 20.2738 32.0088 16C32.0088 11.7262 30.3444 7.70813 27.3225 4.68625ZM4.33004 24.9606C2.42004 22.4769 1.28254 19.3687 1.28254 16C1.28254 7.88 7.88879 1.27375 16.0088 1.27375C24.1288 1.27375 30.7344 7.88 30.7344 16C30.7344 19.37 29.5969 22.4794 27.685 24.9638C27.2113 23.3788 26.005 21.9638 24.1736 20.8818C21.9607 19.5743 19.0473 18.8544 15.9711 18.8544C12.8986 18.8544 9.99798 19.5744 7.8036 20.8831C5.99254 21.9631 4.79941 23.3756 4.33004 24.9606Z" fill="white"/>
</g>
<defs>
<clipPath id="clip0_1107_2617">
<rect width="32" height="32" fill="white"/>
</clipPath>
</defs>
</svg>
