<svg width="32" height="33" viewBox="0 0 32 33" fill="none" xmlns="http://www.w3.org/2000/svg">
<path d="M15.9727 1.88086C8.04705 1.88086 1.62305 8.30486 1.62305 16.2305C1.62305 17.818 1.8813 19.3459 2.35742 20.7734C4.86705 19.2607 7.10867 18.2003 9.07992 17.5215C6.84542 17.8725 4.92961 19.0003 2.21473 17.7715C4.18673 16.0362 7.69486 13.6564 10.873 13.2929C12.5342 11.942 15.13 10.5453 16.4764 10.9629C18.3822 9.28336 20.7253 7.14461 23.2342 5.60355C23.9009 6.6133 24.3045 7.8498 24.0194 9.22067C18.9963 10.4835 20.1637 18.5287 24.8612 13.4357C25.2579 14.2522 25.4493 15.1022 25.4296 16.0254C23.3874 18.1398 21.244 19.9645 19.0585 21.5195C19.0876 23.0189 18.7082 24.8267 17.871 26.8204C17.5188 27.6591 17.4129 29.0957 19.3007 30.1935C25.6219 28.6927 30.3241 23.0107 30.3241 16.2305C30.3241 8.30486 23.8982 1.88092 15.9725 1.88092L15.9727 1.88086ZM16.1797 12.1543C15.065 12.293 14.13 12.7197 13.3144 13.3398C14.0696 13.3375 14.9152 13.5199 15.6582 13.7245C16.0462 13.3059 16.2979 12.567 16.1797 12.1542L16.1797 12.1543Z" fill="white"/>
</svg>
