<svg width="32" height="33" viewBox="0 0 32 33" fill="none" xmlns="http://www.w3.org/2000/svg">
<path d="M24.5947 1.50879C27.147 1.50879 28.5558 3.71904 28.5947 4.50879C28.5947 5.52566 28.092 6.93285 27.0261 7.53954C26.2327 10.6467 22.3669 13.9935 18.9745 15.5848C19.7532 18.3347 14.434 22.3617 11.3232 24.5947C11.474 25.299 11.4232 25.953 11.3232 26.5947C12.0476 27.7617 11.3529 28.2002 11.422 29.5503C11.3843 30.0478 10.5695 30.0009 10.4165 29.243C10.5903 28.1299 10.3109 27.1679 9.86214 27.2997L8.71821 28.8484L7.01258 31.2502C6.80133 31.4642 6.01777 31.3098 6.21008 30.7955L7.61171 28.2409L7.47608 28.1499L4.80996 30.9801C4.59308 31.2045 3.86852 30.6951 4.09514 30.3889L6.59289 27.7306L6.45739 27.6617L4.07221 29.246C3.80008 29.4371 3.25521 28.8757 3.61971 28.6134L5.91183 26.7869L4.33996 27.5759C4.11946 27.6513 3.88577 27.205 4.12596 27.0982L5.95296 25.9304C6.90108 25.164 8.05896 23.8585 9.32314 23.5946C11.3086 20.5975 13.0838 17.611 15.5948 14.5088C16.5795 10.8129 18.9945 7.62779 21.5948 4.50879C21.968 2.36798 23.4631 1.6041 24.5948 1.50879H24.5947Z" fill="white"/>
</svg>
