<svg width="32" height="33" viewBox="0 0 32 33" fill="none" xmlns="http://www.w3.org/2000/svg">
<path d="M15.6972 2.00023C11.8013 2.02148 7.97756 2.98011 5.38469 4.46523L5 4.59398C6.2205 8.23567 8.01019 10.7619 10.0586 12.8675L9.95113 17.0844L13.9824 18.9867C12.7949 22.6732 11.8252 27.0424 10.8321 31.3402H22.7774C22.1331 28.3945 21.4951 25.4343 20.7676 22.6702C22.2534 24.4272 23.6744 26.522 24.959 29.1897L26.0116 28.6839C24.6011 25.7545 23.0155 23.4751 21.3671 21.5822L23.3124 20.0647L20.3456 13.5412L23.3593 11.4318C22.1741 9.21573 21.0189 6.97517 18.8418 5.6408C16.8099 6.89036 15.5918 9.1853 14.3281 11.422L12.5018 13.5902C10.6962 11.9858 9.06588 10.2564 7.746 7.93192C12.3012 4.46211 20.0302 3.63411 26.5176 5.22086C23.6284 2.91098 19.6261 1.97898 15.6972 2.00036V2.00023Z" fill="white"/>
</svg>
