<svg width="32" height="33" viewBox="0 0 32 33" fill="none" xmlns="http://www.w3.org/2000/svg">
<path d="M5.78789 1.8125C3.78789 1.8125 1.78539 3.3125 1.78539 6.3125L5.78789 14.3125L9.78789 6.3125C9.78789 3.3125 7.78789 1.8125 5.78789 1.8125ZM23.4316 4.25C23.0004 4.26813 22.5816 4.35 22.2316 4.425L22.4691 5.525C22.8191 5.44688 23.1816 5.3975 23.4879 5.375L23.4316 4.25ZM5.78789 4.3125C6.89414 4.3125 7.78789 5.20813 7.78789 6.3125C7.78789 7.41875 6.89414 8.3125 5.78789 8.3125C4.68352 8.3125 3.78789 7.41875 3.78789 6.3125C3.78789 5.20813 4.68352 4.3125 5.78789 4.3125ZM24.6754 4.325L24.4879 5.43125C24.7941 5.49563 25.1004 5.57625 25.3691 5.7375L25.9129 4.75C25.5316 4.54688 25.1066 4.36438 24.6754 4.325ZM21.0816 4.74375C20.7004 4.8925 20.3191 5.02562 19.9941 5.15625L20.4379 6.1875C20.7816 6.04125 21.1441 5.91375 21.4504 5.80625L21.0816 4.74375ZM26.9379 5.58125L26.0816 6.3125C26.3066 6.57 26.4816 6.8875 26.6191 7.14375L27.6254 6.6375C27.4129 6.22812 27.2254 5.91813 26.9379 5.58125ZM18.9504 5.6375C18.5691 5.83187 18.2566 6.005 17.9191 6.175L18.4691 7.1625C18.7941 6.975 19.1504 6.79375 19.4379 6.65L18.9504 5.6375ZM16.9316 6.75625C16.6004 6.95 16.2754 7.14375 15.9566 7.35625L16.5691 8.29375C16.8754 8.09375 17.1941 7.90625 17.5066 7.71875L16.9316 6.75625ZM28.0129 7.875C27.6441 7.9375 27.2691 7.98125 26.9004 8.025C26.9254 8.3375 26.9066 8.675 26.8441 8.9375L27.9379 9.19375C28.0004 8.74375 28.0566 8.28125 28.0129 7.875ZM15.0066 7.98125C14.6941 8.19375 14.3879 8.4125 14.0754 8.625L14.7254 9.54375C15.0254 9.325 15.3316 9.11875 15.6379 8.90625L15.0066 7.98125ZM13.1566 9.3C12.8441 9.525 12.5191 9.775 12.2504 9.98125L12.9316 10.875C13.2754 10.625 13.5129 10.4375 13.8254 10.2063L13.1566 9.3ZM26.4691 9.8C26.2816 10.0875 26.0629 10.375 25.8441 10.5938L26.6629 11.375C26.9316 11.0562 27.2191 10.7312 27.4191 10.4062L26.4691 9.8ZM11.3566 10.6812C11.0504 10.9187 10.7441 11.1625 10.4754 11.3875L11.1879 12.2563C11.4816 12.0125 11.7816 11.7625 12.0566 11.5625L11.3566 10.6812ZM25.0691 11.3125C24.7816 11.5437 24.4816 11.7688 24.2066 11.9563L24.8504 12.8813C25.1816 12.6562 25.5066 12.4125 25.7879 12.1875L25.0691 11.3125ZM9.60664 12.1187C9.31289 12.3562 9.03164 12.6063 8.74414 12.85L9.47539 13.7063C9.75664 13.4625 10.0379 13.2188 10.3254 12.9812L9.60664 12.1187ZM23.2879 12.5562C22.9691 12.7437 22.6379 12.9375 22.3379 13.1L22.8754 14.0938C23.2129 13.8875 23.5941 13.7063 23.8754 13.5188L23.2879 12.5562ZM7.88789 13.5938C7.60664 13.8438 7.33164 14.0938 7.05039 14.35L7.80664 15.1875C8.08164 14.9375 8.36289 14.6875 8.63789 14.4375L7.88789 13.5938ZM21.3566 13.6187C21.0254 13.7812 20.6941 13.95 20.3629 14.1125L20.8441 15.125C21.2316 14.9375 21.5191 14.7812 21.8691 14.6187L21.3566 13.6187ZM19.3566 14.5813C19.0129 14.7375 18.6816 14.8875 18.3316 15.0312L18.7879 16.0625C19.1316 15.9125 19.4754 15.7563 19.8191 15.6L19.3566 14.5813ZM6.22539 15.125C5.90664 15.4062 5.68477 15.625 5.39414 15.9062L6.18789 16.7188C6.48164 16.4375 6.71914 16.1938 6.99414 15.9563L6.22539 15.125ZM17.3066 15.4875C16.9629 15.6313 16.6191 15.7812 16.2754 15.925L16.7129 16.9688C17.0629 16.825 17.4066 16.675 17.7504 16.525L17.3066 15.4875ZM15.2379 16.3625C14.8941 16.5125 14.5504 16.6625 14.2004 16.8L14.6379 17.8438C14.9816 17.7 15.3316 17.55 15.6754 17.4062L15.2379 16.3625ZM26.7879 16.8125C24.7879 16.8125 22.7879 18.3125 22.7879 21.3125L26.7879 29.3125L30.7879 21.3125C30.7879 18.3125 28.7879 16.8125 26.7879 16.8125ZM13.1629 17.2375C12.8066 17.4 12.4316 17.55 12.1254 17.6812L12.5691 18.7188C12.9379 18.5625 13.2879 18.4125 13.6004 18.275L13.1629 17.2375ZM11.0879 18.125C10.7504 18.2812 10.3566 18.4562 10.0566 18.5938L10.5191 19.6187C10.8879 19.4562 11.2129 19.2938 11.5379 19.1562L11.0879 18.125ZM9.02539 19.0625C8.67539 19.2313 8.31289 19.4062 8.00039 19.5625L8.50664 20.5688C8.84414 20.3938 9.19414 20.2312 9.50039 20.0812L9.02539 19.0625ZM26.7879 19.3125C27.8941 19.3125 28.7879 20.2062 28.7879 21.3125C28.7879 22.4188 27.8941 23.3125 26.7879 23.3125C25.6816 23.3125 24.7879 22.4188 24.7879 21.3125C24.7879 20.2062 25.6816 19.3125 26.7879 19.3125ZM6.98789 20.0812C6.65664 20.2625 6.32539 20.45 5.98789 20.6437L6.55039 21.6187C6.86914 21.4312 7.19414 21.2562 7.51914 21.0812L6.98789 20.0812ZM5.00664 21.25C4.65602 21.45 4.31727 21.7188 4.02539 21.9125L4.70664 22.8125C5.01727 22.5875 5.35164 22.3563 5.61914 22.1938L5.00664 21.25ZM3.13789 22.6625C2.83789 22.9375 2.54227 23.2563 2.31289 23.525L3.16914 24.2563C3.40977 23.9625 3.61914 23.7437 3.90039 23.4937L3.13789 22.6625ZM16.7504 22.7437L16.8504 23.8625C17.1754 23.8062 17.5004 23.8438 17.8254 23.8937L18.0191 22.7875C17.6066 22.725 17.1691 22.6812 16.7504 22.7437ZM14.4254 23.3687L14.8504 24.4125C15.1754 24.2688 15.5129 24.1562 15.8566 24.05C15.7379 23.6937 15.6504 23.3312 15.5566 22.9688C15.1629 23.0812 14.7691 23.2312 14.4254 23.3687ZM19.2691 23.3125L18.6316 24.2375C18.8941 24.4312 19.1504 24.6375 19.3566 24.8937L20.2066 24.1562C19.8879 23.8312 19.6441 23.525 19.2691 23.3125ZM13.3629 23.875C13.0191 24.05 12.6879 24.25 12.3566 24.4438L12.9254 25.4125C13.2504 25.2375 13.5691 25.0312 13.8879 24.8625L13.3629 23.875ZM1.62602 24.5625C1.43727 24.9688 1.28414 25.4062 1.21289 25.7938L2.31914 25.9875C2.38664 25.6312 2.48352 25.375 2.62539 25.0688C2.28227 24.9188 1.95477 24.7375 1.62602 24.5625ZM11.3816 25.05C11.0629 25.2562 10.7504 25.4625 10.4379 25.675L11.0629 26.6125C11.3754 26.4062 11.6816 26.1937 11.9941 25.9875L11.3816 25.05ZM20.9254 25.125L19.9816 25.7375C20.1816 26.0375 20.3754 26.35 20.5566 26.6688L21.5316 26.1063C21.3129 25.7563 21.1566 25.4438 20.9254 25.125ZM9.50664 26.3125C9.19414 26.5187 8.88164 26.7188 8.57539 26.9375L9.20039 27.875C9.50039 27.6562 9.81914 27.45 10.1379 27.2375L9.50664 26.3125ZM2.33164 26.9062C1.96977 26.9813 1.60477 27.0437 1.24102 27.1125C1.30664 27.55 1.48227 27.975 1.64102 28.3125L2.65664 27.825C2.52102 27.5125 2.39227 27.1875 2.33164 26.9062ZM22.0879 27.0812L21.1129 27.6437C21.3066 27.9812 21.5316 28.3438 21.7129 28.6313L22.6566 28.025C22.4441 27.6938 22.2629 27.3812 22.0879 27.0812ZM7.65039 27.55C7.33789 27.7437 7.03164 27.9312 6.70664 28.1125L7.26289 29.0938C7.59414 28.9 7.92539 28.7062 8.24414 28.5L7.65039 27.55ZM3.19414 28.5688L2.42539 29.3937C2.77289 29.725 3.20164 29.9438 3.66914 30.0438L3.91914 28.95C3.64164 28.8938 3.38227 28.7563 3.19414 28.5688ZM5.75664 28.5875C5.44352 28.7312 5.11852 28.8438 4.78164 28.9125L5.03789 30.0125C5.43914 29.9313 5.81664 29.7812 6.19414 29.625L5.75664 28.5875ZM23.2754 28.8875L22.4066 29.5938C22.6754 29.925 23.0066 30.2437 23.2941 30.4688L23.9879 29.5812C23.7129 29.3687 23.4754 29.1125 23.2754 28.8875ZM24.7816 29.9813L24.5004 31.075C24.9941 31.175 25.3629 31.2062 25.8254 31.1562L25.6879 30.0375C25.3816 30.0875 25.0816 30.0563 24.7816 29.9813Z" fill="white"/>
</svg>
