<svg width="32" height="33" viewBox="0 0 32 33" fill="none" xmlns="http://www.w3.org/2000/svg">
<path d="M14.129 2.01178L13.875 4.16991L15.918 5.77153L17.4024 2.64466C16.2683 2.07328 15.1979 2.03753 14.129 2.01178ZM10.4219 4.31834C8.90639 4.50147 7.73752 5.31191 6.7422 6.43159H6.74408L12.7695 10.3437L10.4219 4.31834ZM18.8047 6.04691L19.9707 11.3907L14.2775 9.89847L16.8125 15.1212L8.02539 9.53522C7.77752 9.83991 7.54414 10.1583 7.32414 10.4902C5.52452 13.2068 4.69589 16.8092 4.64258 20.2852C7.1502 21.5119 8.63277 22.794 9.26958 24.1328C9.84189 25.336 9.61177 26.5741 8.87314 27.5235C10.449 28.9848 13.163 29.8753 15.9453 29.92C18.7461 29.9648 21.5686 29.1648 23.3594 27.496C22.9823 27.0625 22.7086 26.5994 22.5781 26.0937C22.4031 25.4156 22.5186 24.6841 22.9024 24.0137C23.6372 22.7298 25.2553 21.5598 27.9063 20.2831C27.8513 16.9917 27.0403 13.3934 25.25 10.6328C23.7875 8.37747 21.7158 6.66953 18.8047 6.04684V6.04691ZM11.3497 16.5997C13.0841 16.5997 14.4903 18.0059 14.4903 19.7403C14.4903 21.4747 13.0841 22.8809 11.3497 22.8809C9.6152 22.8809 8.20908 21.4747 8.20908 19.7403C8.20908 18.0059 9.6152 16.5997 11.3497 16.5997ZM20.6915 16.5997C22.4258 16.5997 23.8321 18.0059 23.8321 19.7403C23.8321 21.4747 22.4258 22.8809 20.6915 22.8809C18.9571 22.8809 17.5508 21.4747 17.5508 19.7403C17.5508 18.0059 18.9571 16.5997 20.6915 16.5997ZM16.0196 21.9825C16.8783 23.7953 17.5603 25.6089 17.8985 27.4218C16.9749 28.2278 15.3197 28.3447 14.1406 27.4218C14.5978 25.6089 15.1481 23.7953 16.0196 21.9825Z" fill="white"/>
</svg>
