<svg width="32" height="33" viewBox="0 0 32 33" fill="none" xmlns="http://www.w3.org/2000/svg">
<g clip-path="url(#clip0_1101_1805)">
<path d="M1.81144 31.3244L5.27019 30.0544L10.5258 28.8281L11.1996 29.9669L12.7621 30.9619L15.3458 30.6237L17.0871 31.1494L19.5502 31.2369L21.8446 29.0669L24.7621 30.2731L27.1271 30.8425L30.7913 32.8886H1L1.81144 31.3244ZM16.7239 18.6512L16.3489 19.2762C16.9796 19.6575 17.6977 19.6756 18.4039 19.4769C18.7426 19.3776 19.0715 19.2475 19.3864 19.0881C19.3671 19.4806 19.3639 20.1244 19.3746 20.9187L18.1983 20.7394L18.4396 27.9269L19.6721 27.8737C19.7152 28.4694 19.7627 29.0281 19.8139 29.5262L19.1439 30.16L17.2633 30.0931L15.6514 29.6075L15.4327 29.5413L15.2064 29.5706L13.0064 29.8575L12.7008 29.6625C13.2077 27.295 13.7914 21.9681 13.9202 20.8062C13.9758 20.3519 13.9968 19.8937 13.9827 19.4362L14.6008 19.1025L14.6446 18.7031L14.4571 18.2956H13.9021L13.6114 17.725L13.4971 17.7644C13.4467 17.6959 13.3918 17.631 13.3327 17.57L13.3277 17.565L11.8277 15.9475L11.9752 15.5725L11.9014 15.13L11.3696 14.9825L11.2402 14.3575L10.4058 14.4119L8.47144 12.325C8.50456 12.0544 8.65894 11.7106 8.90269 11.44C9.13394 11.18 9.41894 11.0144 9.64519 10.9687L13.3327 14.8694L13.9258 14.46L11.2327 8.8925C11.3408 8.6425 11.5896 8.38375 11.9033 8.21562C12.2058 8.05312 12.5352 7.9975 12.7627 8.02812L15.6064 13.795L16.2939 13.5744L15.2758 7.39187C15.4433 7.22437 15.7546 7.065 16.0883 7.01687C16.1618 7.0064 16.2359 7.00076 16.3102 7H16.3833C16.6003 7.00257 16.8133 7.05814 17.0039 7.16187L17.9452 13.0569L18.6596 13.0788L19.7702 8.05312C20.1383 8.34312 20.9727 9.03875 20.9727 9.03875L21.4258 8.895L20.1996 14.4781H20.2033L20.1133 14.8725L20.0733 15.0525L20.6283 15.4137C21.5221 14.86 22.4021 14.2887 23.1452 14.0281C23.6314 13.8594 24.0327 13.8281 24.3552 13.955C24.6208 14.0594 24.8714 14.2906 25.0989 14.7319C23.2408 15.6388 21.6083 16.8912 20.2083 17.7781C19.4664 18.2481 18.7902 18.6119 18.2083 18.7781C17.6264 18.9444 17.1627 18.9169 16.7239 18.6512ZM16.1089 22.7381V24.3631L16.8202 24.935L16.5214 25.3225L16.5389 26.5031L17.0577 27.075L17.8039 27.6937L17.5789 20.99L17.0577 21.3375L16.5739 22.7394H16.1089V22.7381Z" fill="white"/>
</g>
<defs>
<clipPath id="clip0_1101_1805">
<rect width="32" height="32" fill="white" transform="translate(0 0.5)"/>
</clipPath>
</defs>
</svg>
