<svg width="32" height="33" viewBox="0 0 32 33" fill="none" xmlns="http://www.w3.org/2000/svg">
<path d="M18.3936 3.84961L13.3186 3.86461L8.34988 8.27461L9.49363 12.6809L12.5624 12.1871L10.9499 16.8559L13.3686 15.4559L14.0561 17.6996L15.9436 15.3809L17.8311 17.8059L18.9874 15.3996L20.9686 16.7184L19.3811 12.2246L22.2811 12.6059L23.4624 8.41211C21.7686 6.89336 20.0811 5.36836 18.3936 3.84961ZM12.8436 7.67461C13.6749 7.66836 14.6124 8.23711 15.0874 9.36211L11.2186 9.94336C10.9749 8.81211 11.9061 7.71211 12.8436 7.67461ZM19.3749 7.67461C20.3186 7.68086 21.1311 8.43086 20.9999 9.94336L17.1249 9.36211C17.6061 8.23711 18.5436 7.66836 19.3749 7.67461ZM15.9686 10.0809L17.5686 13.6246H14.5749L15.9686 10.0809ZM5.82863 18.5309L3.20613 20.3559L16.1624 24.8996L29.1249 20.3309L26.5624 18.5309C23.1436 19.1059 19.0249 17.6309 17.1436 20.5184H15.1811C12.6186 17.6621 8.64988 18.9434 5.82863 18.5309ZM1.81238 21.1121L1.42676 22.2121L13.3436 26.3809V27.4934H19.0686V26.3246C22.9624 24.9621 26.9124 23.5809 30.8249 22.2121L30.4374 21.1121L17.5811 25.6059L17.8374 26.3246H14.4124L14.6686 25.6059C10.3811 24.1059 6.09676 22.6059 1.81238 21.1121Z" fill="white"/>
</svg>
