<svg width="32" height="33" viewBox="0 0 32 33" fill="none" xmlns="http://www.w3.org/2000/svg">
<g clip-path="url(#clip0_1101_1817)">
<path d="M15.9998 2.0625C15.5873 2.0625 14.9936 2.29812 14.3686 2.73062C13.7498 3.16312 13.0998 3.77375 12.5186 4.42375C11.9936 5.01875 11.5248 5.64625 11.1748 6.19562C11.4873 6.0525 11.7998 5.92438 12.1186 5.81L12.1748 5.78438C13.4373 5.23563 14.7123 4.95625 15.9936 4.95625C17.2748 4.955 18.5561 5.22937 19.8248 5.785L19.8748 5.80688C20.1936 5.92188 20.5123 6.05125 20.8248 6.19562C20.4748 5.64625 20.0061 5.01875 19.4811 4.42375C18.8998 3.77375 18.2498 3.16312 17.6311 2.73062C17.0061 2.29812 16.4123 2.0625 15.9998 2.0625ZM15.9998 6.26438C14.9811 6.26438 13.9686 6.4125 12.9873 6.70813C13.0498 7.75 13.3186 8.98125 13.7998 9.95C14.3498 11.05 15.0811 11.7375 15.9998 11.7375C16.9186 11.7375 17.6498 11.05 18.1998 9.95C18.6811 8.98125 18.9498 7.75 19.0123 6.70813C18.0311 6.4125 17.0186 6.26438 15.9998 6.26438ZM11.8748 7.11875C11.4311 7.3125 10.9936 7.5375 10.5748 7.8C10.6561 8.99375 11.2248 9.95625 12.1248 10.6562C12.4811 10.9375 12.8936 11.1687 13.3436 11.3438C13.1373 11.0688 12.9561 10.7625 12.7998 10.45C12.2748 9.4125 11.9748 8.21875 11.8748 7.11875ZM20.1248 7.11875C20.0248 8.21875 19.7248 9.4125 19.1998 10.45C19.0436 10.7688 18.8561 11.075 18.6498 11.3562C19.1123 11.175 19.5311 10.9438 19.8936 10.6562C20.7811 9.95625 21.3436 8.99375 21.4248 7.8C21.0061 7.5375 20.5686 7.3125 20.1248 7.11875ZM11.9123 11.8813C10.4498 12.1063 8.9873 12.4563 7.51855 12.925L5.83855 27.1875L7.7873 27.8375L9.44355 15.425L10.5623 15.5375L9.7248 28.125C11.1998 28.4813 13.6061 28.6875 15.9998 28.6875C18.3936 28.6875 20.7998 28.4813 22.2748 28.125L21.4373 15.5375L22.5561 15.425L24.2123 27.8375L26.1561 27.1938L24.4811 12.925C23.0186 12.4625 21.5623 12.1063 20.1061 11.8813C19.8498 12.0438 19.5811 12.1812 19.2998 12.3062C19.0936 13.05 19.1186 13.9312 19.2998 14.75C19.5311 15.7937 20.0311 16.7375 20.3998 17.1L19.5998 17.9C18.9686 17.2625 18.4686 16.2063 18.1998 15C18.0373 14.2688 17.9623 13.475 18.0623 12.7063C17.4123 12.85 16.7186 12.9062 15.9998 12.8625C15.2811 12.9062 14.5873 12.8438 13.9373 12.7C14.0373 13.4688 13.9623 14.2625 13.7998 15C13.5311 16.2063 13.0311 17.2625 12.3998 17.9L11.5998 17.1C11.9686 16.7375 12.4686 15.7937 12.6998 14.75C12.8811 13.925 12.9061 13.0437 12.6998 12.2937C12.4248 12.175 12.1623 12.0375 11.9123 11.8813ZM12.5498 21.5312H19.4498L20.5498 26.375L19.4498 26.625L18.5498 22.6562H13.4498L12.5498 26.625L11.4498 26.375L12.5498 21.5312ZM5.7048 28.325L5.56543 29.5063C5.56855 29.4875 5.60855 29.6125 5.81418 29.775C6.02668 29.9375 6.35605 30.1063 6.6748 30.2188C6.99355 30.3188 7.30605 30.3563 7.4498 30.3438L7.63105 28.9688L5.7048 28.325ZM26.2936 28.325L24.3686 28.9688L24.5498 30.3438C24.6936 30.3563 25.0061 30.3188 25.3248 30.2188C25.6436 30.1063 25.9748 29.9375 26.1873 29.775C26.3936 29.6125 26.4311 29.4875 26.4311 29.5063L26.2936 28.325ZM9.6498 29.2625L9.56855 30.4625V30.4688C9.5998 30.5 9.6998 30.575 9.8498 30.65C10.1498 30.8 10.6623 30.95 11.2936 31.075C12.5498 31.3125 14.2748 31.4375 15.9998 31.4375C17.7248 31.4375 19.4498 31.3125 20.7061 31.075C21.3373 30.95 21.8498 30.8 22.1498 30.65C22.2998 30.575 22.3998 30.5 22.4311 30.4688V30.4625L22.3498 29.2625C20.6936 29.6438 18.3561 29.8125 15.9998 29.8125C13.6436 29.8125 11.3061 29.6438 9.6498 29.2625Z" fill="white"/>
</g>
<defs>
<clipPath id="clip0_1101_1817">
<rect width="32" height="32" fill="white" transform="translate(0 0.5)"/>
</clipPath>
</defs>
</svg>
