<svg width="32" height="33" viewBox="0 0 32 33" fill="none" xmlns="http://www.w3.org/2000/svg">
<path d="M1.95531 2L13.1939 13.2388C14.1934 12.4575 15.2473 11.9055 16.2569 11.621C16.6388 11.5134 17.0201 11.4443 17.3908 11.419L7.97162 2H1.95538H1.95531ZM1 6.75163V8.1525L9.99581 17.1483C10.1386 16.845 10.3019 16.5412 10.4877 16.2393L1 6.75175V6.75163ZM1 9.80438V11.1618L9.34456 19.5064C9.36687 19.1283 9.43544 18.7388 9.54406 18.3484L1 9.80438ZM17.735 12.5736C17.3891 12.5699 17 12.6251 16.5737 12.7453C15.4371 13.0656 14.1134 13.8481 12.945 15.0164C11.7767 16.1847 10.9941 17.5085 10.6737 18.6451C10.3535 19.7818 10.4947 20.6548 10.9852 21.1453C11.4757 21.6358 12.3487 21.777 13.4853 21.4567C13.6597 21.4075 13.8389 21.3463 14.0209 21.2756C13.7431 23.4822 14.1981 26.3602 15.4128 29.8617C15.8529 23.1704 17.9259 25.0407 20.6844 31.0409C19.0833 24.4386 23.869 26.5213 30.1677 31.5531C25.0016 25.5502 23.6134 21.3803 30.8255 23.1369C23.7518 20.5776 22.6461 18.0196 28.7572 17.8263C24.7882 16.3655 21.5898 15.8159 19.1945 16.1173C19.2695 15.9266 19.3339 15.7391 19.3854 15.5566C19.7056 14.42 19.5646 13.5469 19.0741 13.0564C18.7675 12.7499 18.3114 12.5798 17.7351 12.5735L17.735 12.5736ZM16.7581 13.8816C17.1961 13.8869 17.573 14.018 17.843 14.288C18.2956 14.7406 18.3572 15.4939 18.0905 16.3317C16.0752 16.8763 14.7814 18.1714 14.2372 20.1666C13.4101 20.4235 12.6678 20.3587 12.2201 19.911C11.3562 19.047 11.9146 17.0879 13.4673 15.5352C14.5348 14.4677 15.7944 13.8701 16.7581 13.8816Z" fill="white"/>
</svg>
