<svg width="32" height="33" viewBox="0 0 32 33" fill="none" xmlns="http://www.w3.org/2000/svg">
<path d="M1.6875 3.49707C2.42037 6.29745 5.1985 11.6196 5.906 18.6804C5.49369 23.4613 4.48975 24.8561 4.48975 28.2267C4.48975 29.9518 5.19787 30.6041 5.94312 30.6041C6.672 30.6041 7.42562 29.8651 7.42562 28.0481C7.42562 24.5102 6.36706 23.4331 5.97044 18.5699C6.37494 13.3418 9.70263 15.6991 9.70263 18.7428C9.70263 11.702 16.077 13.4203 16.9541 16.5696C16.6314 18.764 16.0149 19.4413 16.0149 21.2801C16.0149 22.3197 16.5468 23.0839 17.0611 23.0839C17.5871 23.0839 18.0868 22.3693 18.0868 21.3823C18.0868 19.6352 17.5053 18.8156 17.1796 16.6432C18.145 14.2882 24.4011 14.4818 24.4199 16.5336C24.2067 18.1844 23.6221 18.5417 23.6221 19.7311C23.6221 20.3382 24.0334 20.7845 24.4311 20.7845C24.8377 20.7845 25.2239 20.3672 25.2239 19.7908C25.2239 18.6386 24.6511 18.1759 24.4366 16.4874C25.3202 13.4149 29.8472 15.2457 30.1871 11.9063C26.9859 14.7756 7.86369 13.5788 1.6875 3.4972V3.49707ZM9.74062 20.1358C9.44837 22.1234 8.63844 22.6533 8.63844 23.9936C8.63844 24.6587 9.17544 25.1402 9.74069 25.1402C10.2934 25.1402 10.8649 24.6252 10.8649 23.9246C10.8649 22.5284 10.0234 22.1273 9.74069 20.1358H9.74062Z" fill="white"/>
</svg>
