<svg width="32" height="33" viewBox="0 0 32 33" fill="none" xmlns="http://www.w3.org/2000/svg">
<path d="M21.7681 2.00006L19.4603 7.36144L21.9496 8.43294L24.2574 3.07156L21.7681 2L21.7681 2.00006ZM9.9955 2.02144L7.48831 3.05019L9.70413 8.45019L12.2113 7.42144L9.99556 2.02144H9.9955ZM11.9266 2.41831L11.4183 2.63094L13.2164 7.01425L13.6289 8.02012L12.6239 8.42987L10.1169 9.45862L9.11112 9.87113L8.69862 8.8655L6.91337 4.51612L6.21962 4.80638C7.30247 6.25381 7.78881 8.06149 7.57842 9.85686C7.36803 11.6522 6.47695 13.2985 5.08881 14.4564V16.7358H10.9332V21.6138H5.08875V22.5053H10.9331V27.3902H5.08875V29.7863C6.13875 30.8363 11.0072 31.3609 15.8757 31.3609C20.7442 31.3609 25.6128 30.8363 26.6628 29.7863V27.3902H20.8183V22.5061H26.6628V21.6136H20.8164V16.7294H26.6606V14.4507C25.2725 13.2928 24.3814 11.6465 24.171 9.85117C23.9606 8.0558 24.447 6.24813 25.5298 4.80069L24.8211 4.50381L22.9461 8.85919L22.5159 9.85831L21.5169 9.42813L19.031 8.36188L18.032 7.93169L18.4622 6.93262L20.3174 2.622L19.8241 2.41825C19.4329 3.12246 18.8605 3.70923 18.1662 4.11776C17.4719 4.5263 16.681 4.74173 15.8754 4.74173C15.0698 4.74173 14.2789 4.5263 13.5846 4.11776C12.8903 3.70923 12.3178 3.12252 11.9266 2.41831ZM4 17.8169V20.5271H9.84644V17.8169H4ZM21.9036 17.8169V20.5271H27.75V17.8169H21.9036ZM4 23.5933V26.3036H9.84644V23.5933H4V23.5933ZM21.9036 23.5933V26.3036H27.75V23.5933H21.9036V23.5933Z" fill="white"/>
</svg>
