<svg width="24" height="24" viewBox="0 0 24 24" fill="none" xmlns="http://www.w3.org/2000/svg">
<path d="M20.25 7.5H4.5C3.675 7.5 3 6.825 3 6C3 5.175 3.675 4.5 4.5 4.5H7.5C7.95 4.5 8.25 4.2 8.25 3.75C8.25 3.3 7.95 3 7.5 3H4.5C2.85 3 1.5 4.35 1.5 6V18C1.5 19.65 2.85 21 4.5 21H20.25C21.525 21 22.5 20.025 22.5 18.75V9.75C22.5 8.475 21.525 7.5 20.25 7.5ZM21 11.85V16.65C20.775 16.575 20.55 16.5 20.25 16.5H17.25C15.975 16.5 15 15.525 15 14.25C15 12.975 15.975 12 17.25 12H20.25C20.55 12 20.775 11.925 21 11.85Z" fill="#AFAFAF"/>
<path d="M5.25 5.25031C4.8 5.25031 4.5 5.55031 4.5 6.00031C4.5 6.4503 4.8 6.75031 5.25 6.75031H8.25H19.5C19.725 6.75031 19.95 6.60031 20.1 6.45031C20.25 6.22531 20.25 6.00031 20.175 5.7753L18.675 2.02531C18.525 1.65031 18.075 1.4253 17.7 1.5753L8.1 5.25031H5.25Z" fill="white"/>
<path d="M18.75 13.5H17.25C16.8 13.5 16.5 13.8 16.5 14.25C16.5 14.7 16.8 15 17.25 15H18.75C19.2 15 19.5 14.7 19.5 14.25C19.5 13.8 19.2 13.5 18.75 13.5Z" fill="white"/>
</svg>
