<svg width="24" height="24" viewBox="0 0 24 24" fill="none" xmlns="http://www.w3.org/2000/svg">
<path d="M5.60018 3.20042C5.39548 3.20042 5.19055 3.2784 5.03455 3.4348L3.43455 5.0348C3.12175 5.3476 3.12175 5.85405 3.43455 6.16605L9.26893 12.0004L3.43455 17.8348C3.12175 18.1476 3.12175 18.654 3.43455 18.966L5.03455 20.566C5.34735 20.8788 5.8538 20.8788 6.1658 20.566L12.0002 14.7317L17.8346 20.566C18.1466 20.8788 18.6538 20.8788 18.9658 20.566L20.5658 18.966C20.8786 18.6532 20.8786 18.1468 20.5658 17.8348L14.7314 12.0004L20.5658 6.16605C20.8786 5.85405 20.8786 5.3468 20.5658 5.0348L18.9658 3.4348C18.653 3.122 18.1466 3.122 17.8346 3.4348L12.0002 9.26917L6.1658 3.4348C6.0094 3.2784 5.80488 3.20042 5.60018 3.20042Z" fill="white"/>
</svg>
