<svg width="24" height="24" viewBox="0 0 24 24" fill="none" xmlns="http://www.w3.org/2000/svg">
<path d="M10.3989 2.40046C10.293 2.39903 10.1878 2.41866 10.0894 2.45821C9.99113 2.49777 9.90164 2.55647 9.8262 2.6309C9.75075 2.70533 9.69084 2.79401 9.64995 2.89178C9.60906 2.98956 9.58801 3.09448 9.58801 3.20046H4.79894C4.69293 3.19897 4.58768 3.21855 4.48931 3.25808C4.39093 3.29761 4.3014 3.3563 4.2259 3.43074C4.15041 3.50517 4.09046 3.59387 4.04954 3.69168C4.00862 3.78948 3.98755 3.89444 3.98755 4.00046C3.98755 4.10648 4.00862 4.21145 4.04954 4.30925C4.09046 4.40706 4.15041 4.49576 4.2259 4.57019C4.3014 4.64463 4.39093 4.70332 4.48931 4.74285C4.58768 4.78238 4.69293 4.80196 4.79894 4.80046H19.1989C19.305 4.80196 19.4102 4.78238 19.5086 4.74285C19.607 4.70332 19.6965 4.64463 19.772 4.57019C19.8475 4.49576 19.9074 4.40706 19.9483 4.30925C19.9893 4.21145 20.0103 4.10648 20.0103 4.00046C20.0103 3.89444 19.9893 3.78948 19.9483 3.69168C19.9074 3.59387 19.8475 3.50517 19.772 3.43074C19.6965 3.3563 19.607 3.29761 19.5086 3.25808C19.4102 3.21855 19.305 3.19897 19.1989 3.20046H14.4099C14.4099 3.09448 14.3888 2.98956 14.3479 2.89178C14.307 2.79401 14.2471 2.70533 14.1717 2.6309C14.0962 2.55647 14.0068 2.49777 13.9084 2.45821C13.8101 2.41866 13.7049 2.39903 13.5989 2.40046H10.3989ZM4.79894 6.40046V19.2005C4.79894 20.0845 5.51494 20.8005 6.39894 20.8005H17.5989C18.4829 20.8005 19.1989 20.0845 19.1989 19.2005V6.40046H4.79894Z" fill="white"/>
</svg>
